<svg width="3000" height="2048" viewBox="0 0 3000 2048" fill="none" xmlns="http://www.w3.org/2000/svg">
<g clip-path="url(#clip0_9422_44344)">
<rect width="3000" height="2048" fill="white"/>
<path d="M3438.52 -34.7742C3085 12.0849 2842.52 267.944 2708.03 510.526C2565.81 767.072 2579.41 973.776 2470.07 1194.07C2304.15 1528.36 2072.78 1661.18 1904.86 1742.92C1783.11 1802.19 1588.14 1846.2 1494.66 1851.29C1132.23 1871 943.602 1770.09 696.051 1782.02C510.536 1785.66 300.1 1844.59 99.5949 1960.35C-103.026 2077.33 -260.451 2232.12 -356.09 2392.76L-569.737 2022.71C-540.893 1988.63 -516.074 1954.8 -495.315 1928.96C-327.022 1719.47 0.0723405 1551.24 233.679 1565.64C629.866 1586.81 1219.5 1763.19 1440.65 1766.52C1584.7 1768.69 1737.9 1730.51 1879.95 1648.5C2087.18 1528.86 2221.41 1341.73 2272.71 1147.96C2338.09 901.016 2267.77 544.287 2406.82 173.379C2524.65 -140.904 2803.02 -549.57 3015.7 -767.131L3438.52 -34.7742Z" fill="url(#paint0_linear_9422_44344)"/>
<path d="M3438.52 -34.7742C3085 12.0849 2842.52 267.944 2708.03 510.526C2565.81 767.072 2579.41 973.776 2470.07 1194.07C2304.15 1528.36 2072.78 1661.18 1904.86 1742.92C1783.11 1802.19 1588.14 1846.2 1494.66 1851.29C1132.23 1871 943.602 1770.09 696.051 1782.02C510.536 1785.66 300.1 1844.59 99.5949 1960.35C-103.026 2077.33 -260.451 2232.12 -356.09 2392.76L-569.737 2022.71C-540.893 1988.63 -516.074 1954.8 -495.315 1928.96C-327.022 1719.47 0.0723405 1551.24 233.679 1565.64C629.866 1586.81 1219.5 1763.19 1440.65 1766.52C1584.7 1768.69 1737.9 1730.51 1879.95 1648.5C2087.18 1528.86 2221.41 1341.73 2272.71 1147.96C2338.09 901.016 2267.77 544.287 2406.82 173.379C2524.65 -140.904 2803.02 -549.57 3015.7 -767.131L3438.52 -34.7742Z" fill="url(#paint1_linear_9422_44344)"/>
<path d="M3438.52 -34.7742C3085 12.0849 2842.52 267.944 2708.03 510.526C2565.81 767.072 2579.41 973.776 2470.07 1194.07C2304.15 1528.36 2072.78 1661.18 1904.86 1742.92C1783.11 1802.19 1588.14 1846.2 1494.66 1851.29C1132.23 1871 943.602 1770.09 696.051 1782.02C510.536 1785.66 300.1 1844.59 99.5949 1960.35C-103.026 2077.33 -260.451 2232.12 -356.09 2392.76L-569.737 2022.71C-540.893 1988.63 -516.074 1954.8 -495.315 1928.96C-327.022 1719.47 0.0723405 1551.24 233.679 1565.64C629.866 1586.81 1219.5 1763.19 1440.65 1766.52C1584.7 1768.69 1737.9 1730.51 1879.95 1648.5C2087.18 1528.86 2221.41 1341.73 2272.71 1147.96C2338.09 901.016 2267.77 544.287 2406.82 173.379C2524.65 -140.904 2803.02 -549.57 3015.7 -767.131L3438.52 -34.7742Z" fill="url(#paint2_radial_9422_44344)"/>
<path d="M3438.52 -34.7742C3085 12.0849 2842.52 267.944 2708.03 510.526C2565.81 767.072 2579.41 973.776 2470.07 1194.07C2304.15 1528.36 2072.78 1661.18 1904.86 1742.92C1783.11 1802.19 1588.14 1846.2 1494.66 1851.29C1132.23 1871 943.602 1770.09 696.051 1782.02C510.536 1785.66 300.1 1844.59 99.5949 1960.35C-103.026 2077.33 -260.451 2232.12 -356.09 2392.76L-569.737 2022.71C-540.893 1988.63 -516.074 1954.8 -495.315 1928.96C-327.022 1719.47 0.0723405 1551.24 233.679 1565.64C629.866 1586.81 1219.5 1763.19 1440.65 1766.52C1584.7 1768.69 1737.9 1730.51 1879.95 1648.5C2087.18 1528.86 2221.41 1341.73 2272.71 1147.96C2338.09 901.016 2267.77 544.287 2406.82 173.379C2524.65 -140.904 2803.02 -549.57 3015.7 -767.131L3438.52 -34.7742Z" fill="url(#paint3_radial_9422_44344)"/>
<path d="M3438.52 -34.7742C3085 12.085 2842.52 267.944 2708.03 510.526C2565.81 767.072 2579.41 973.776 2470.07 1194.07C2304.15 1528.36 2072.78 1661.18 1904.86 1742.92C1783.11 1802.19 1588.14 1846.2 1494.66 1851.29C1132.23 1871 943.602 1770.09 696.051 1782.02C510.536 1785.66 300.1 1844.59 99.5949 1960.35C-103.026 2077.33 -260.451 2232.12 -356.09 2392.76L-569.737 2022.71C-540.893 1988.63 -516.074 1954.8 -495.315 1928.96C-327.022 1719.47 0.0723493 1551.24 233.68 1565.63C629.866 1586.81 1219.5 1763.19 1440.65 1766.52C1584.7 1768.69 1737.9 1730.51 1879.95 1648.5C2087.18 1528.86 2221.41 1341.73 2272.71 1147.96C2338.09 901.016 2267.77 544.287 2406.82 173.379C2524.65 -140.904 2803.02 -549.57 3015.7 -767.131L3438.52 -34.7742Z" fill="url(#paint4_radial_9422_44344)"/>
<path d="M3438.52 -34.7742C3085 12.085 2842.52 267.944 2708.03 510.526C2565.81 767.072 2579.41 973.776 2470.07 1194.07C2304.15 1528.36 2072.78 1661.18 1904.86 1742.92C1783.11 1802.19 1588.14 1846.2 1494.66 1851.29C1132.23 1871 943.602 1770.09 696.051 1782.02C510.536 1785.66 300.1 1844.59 99.5949 1960.35C-103.026 2077.33 -260.451 2232.12 -356.09 2392.76L-569.737 2022.71C-540.893 1988.63 -516.074 1954.8 -495.315 1928.96C-327.022 1719.47 0.0723493 1551.24 233.68 1565.63C629.866 1586.81 1219.5 1763.19 1440.65 1766.52C1584.7 1768.69 1737.9 1730.51 1879.95 1648.5C2087.18 1528.86 2221.41 1341.73 2272.71 1147.96C2338.09 901.016 2267.77 544.287 2406.82 173.379C2524.65 -140.904 2803.02 -549.57 3015.7 -767.131L3438.52 -34.7742Z" fill="url(#paint5_radial_9422_44344)"/>
<path d="M2706.03 508.527C2840.52 265.945 3083 10.0857 3436.52 -36.7737L3434.7 -39.9333C3434.96 -39.9682 3435.22 -40.0043 3435.49 -40.039L3438.53 -34.7735C3085 12.0856 2842.52 267.945 2708.03 510.526C2565.81 767.072 2579.41 973.777 2470.07 1194.07C2304.15 1528.36 2072.78 1661.18 1904.86 1742.92C1783.11 1802.19 1588.14 1846.2 1494.66 1851.29C1132.23 1871 943.603 1770.09 696.051 1782.02C510.537 1785.66 300.101 1844.59 99.5951 1960.35C-103.026 2077.33 -260.451 2232.12 -356.09 2392.76L-357.66 2390.04C-261.98 2229.66 -104.723 2075.16 97.5951 1958.35C298.1 1842.59 508.536 1783.66 694.051 1780.02C941.602 1768.09 1130.23 1869 1492.66 1849.29C1586.14 1844.2 1781.11 1800.19 1902.86 1740.92C2070.78 1659.18 2302.15 1526.36 2468.07 1192.07C2577.41 971.777 2563.81 765.073 2706.03 508.527Z" fill="url(#paint6_linear_9422_44344)"/>
<path d="M3017.16 -764.59C2804.55 -546.893 2526.54 -138.643 2408.82 175.379C2269.76 546.287 2340.09 903.016 2274.71 1149.96C2223.41 1343.73 2089.17 1530.85 1881.94 1650.5C1739.9 1732.51 1586.7 1770.69 1442.65 1768.52C1221.49 1765.19 631.861 1588.81 235.675 1567.63C2.0675 1553.24 -325.026 1721.47 -493.32 1930.96C-514.079 1956.8 -538.898 1990.63 -567.743 2024.71L-566.808 2026.33C-566.974 2026.53 -567.14 2026.73 -567.307 2026.92L-569.738 2022.71C-540.894 1988.63 -516.075 1954.8 -495.315 1928.96C-327.022 1719.47 0.0718689 1551.24 233.679 1565.64C629.865 1586.81 1219.5 1763.19 1440.65 1766.52C1584.7 1768.69 1737.9 1730.51 1879.95 1648.5C2087.17 1528.85 2221.41 1341.73 2272.71 1147.96C2338.09 901.016 2267.77 544.287 2406.82 173.379C2524.64 -140.903 2803.02 -549.569 3015.7 -767.131L3017.16 -764.59Z" fill="url(#paint7_linear_9422_44344)"/>
<path d="M1494.66 1851.29C1588.14 1846.21 1783.11 1802.19 1904.86 1742.93C2072.78 1661.19 2304.15 1528.37 2470.07 1194.07C2579.41 973.778 2565.81 767.075 2708.03 510.529C2842.51 267.947 3085 12.0872 3438.52 -34.772L4776.2 2282.15L879.087 4532.15L-356.091 2392.76C-260.452 2232.12 -103.027 2077.33 99.594 1960.35C300.1 1844.59 510.535 1785.66 696.05 1782.02C943.601 1770.09 1132.23 1871 1494.66 1851.29Z" fill="url(#paint8_linear_9422_44344)"/>
<path d="M1494.66 1851.29C1588.14 1846.21 1783.11 1802.19 1904.86 1742.93C2072.78 1661.19 2304.15 1528.37 2470.07 1194.07C2579.41 973.778 2565.81 767.074 2708.03 510.528C2842.51 267.947 3085 12.0872 3438.52 -34.7721L4776.2 2282.15L879.087 4532.15L-356.091 2392.76C-260.452 2232.12 -103.027 2077.33 99.594 1960.35C300.1 1844.59 510.535 1785.66 696.05 1782.02C943.601 1770.09 1132.23 1871 1494.66 1851.29Z" fill="url(#paint9_radial_9422_44344)"/>
<path d="M1494.71 1851.36C1588.18 1846.28 1783.16 1802.27 1904.91 1743C2072.83 1661.26 2304.19 1528.44 2470.12 1194.14C2579.45 973.853 2565.85 767.149 2708.08 510.603C2842.56 268.022 3085.04 12.1621 3438.57 -34.6971L4776.2 2282.15L879.088 4532.15L-356.046 2392.84C-260.407 2232.2 -102.982 2077.41 99.6389 1960.43C300.145 1844.66 510.58 1785.74 696.095 1782.09C943.646 1770.17 1132.27 1871.07 1494.71 1851.36Z" fill="url(#paint10_radial_9422_44344)"/>
<path d="M1494.71 1851.36C1588.18 1846.28 1783.16 1802.27 1904.91 1743C2072.83 1661.26 2304.19 1528.44 2470.12 1194.14C2579.45 973.853 2565.85 767.149 2708.08 510.603C2842.56 268.021 3085.04 12.1621 3438.57 -34.6971L4776.2 2282.15L879.088 4532.15L-356.046 2392.84C-260.407 2232.2 -102.982 2077.41 99.6389 1960.43C300.145 1844.66 510.58 1785.74 696.095 1782.09C943.646 1770.17 1132.27 1871.07 1494.71 1851.36Z" fill="url(#paint11_radial_9422_44344)"/>
<path d="M1494.71 1851.36C1588.18 1846.28 1783.16 1802.27 1904.9 1743C2072.83 1661.26 2304.19 1528.44 2470.12 1194.14C2579.45 973.853 2565.85 767.149 2708.08 510.603C2842.56 268.022 3085.04 12.1622 3438.57 -34.6971L4776.2 2282.15L879.088 4532.15L-356.046 2392.84C-260.407 2232.2 -102.982 2077.41 99.6389 1960.43C300.145 1844.66 510.58 1785.74 696.095 1782.09C943.646 1770.17 1132.27 1871.07 1494.71 1851.36Z" fill="url(#paint12_radial_9422_44344)"/>
<path d="M2406.82 173.381C2267.77 544.289 2338.09 901.018 2272.71 1147.96C2221.41 1341.73 2087.18 1528.86 1879.95 1648.5C1737.9 1730.51 1584.7 1768.7 1440.65 1766.53C1219.5 1763.19 624.791 1589.74 233.679 1565.64C0.072285 1551.24 -327.021 1719.48 -495.315 1928.96C-516.074 1954.8 -540.892 1988.64 -569.736 2022.71L-1461 479.001L2436.11 -1771L3015.7 -767.129C2803.02 -549.567 2524.65 -140.902 2406.82 173.381Z" fill="url(#paint13_linear_9422_44344)"/>
<path d="M2406.82 173.381C2267.77 544.289 2338.09 901.018 2272.71 1147.96C2221.41 1341.73 2087.18 1528.86 1879.95 1648.5C1737.9 1730.51 1584.7 1768.7 1440.65 1766.53C1219.5 1763.19 624.791 1589.74 233.679 1565.64C0.072285 1551.24 -327.021 1719.48 -495.315 1928.96C-516.074 1954.8 -540.892 1988.64 -569.736 2022.71L-1461 479.001L2436.11 -1771L3015.7 -767.129C2803.02 -549.567 2524.65 -140.902 2406.82 173.381Z" fill="url(#paint14_linear_9422_44344)"/>
<path d="M2406.82 173.381C2267.77 544.289 2338.09 901.018 2272.71 1147.96C2221.41 1341.73 2087.18 1528.86 1879.95 1648.5C1737.9 1730.51 1584.7 1768.7 1440.65 1766.53C1219.5 1763.19 624.791 1589.74 233.679 1565.64C0.072285 1551.24 -327.021 1719.48 -495.315 1928.96C-516.074 1954.8 -540.892 1988.64 -569.736 2022.71L-1461 479.001L2436.11 -1771L3015.7 -767.129C2803.02 -549.567 2524.65 -140.902 2406.82 173.381Z" fill="url(#paint15_linear_9422_44344)"/>
<path d="M-1461 479.001L2436.11 -1771L4776.2 2282.15L879.088 4532.15L-1461 479.001Z" fill="url(#paint16_linear_9422_44344)"/>
<path d="M-1461 479.001L2436.11 -1771L4776.2 2282.15L879.088 4532.15L-1461 479.001Z" fill="url(#paint17_linear_9422_44344)"/>
<path d="M-1461 479.001L2436.11 -1771L4776.2 2282.15L879.088 4532.15L-1461 479.001Z" fill="white" fill-opacity="0.3"/>
</g>
<defs>
<linearGradient id="paint0_linear_9422_44344" x1="-683.142" y1="1826.29" x2="3777.79" y2="618.294" gradientUnits="userSpaceOnUse">
<stop stop-color="#F0EFF0"/>
<stop offset="0.192308" stop-color="#F5F4F6"/>
<stop offset="0.475962" stop-color="#ECEAF0"/>
<stop offset="0.711538" stop-color="#E5F1F2"/>
<stop offset="1" stop-color="#E5F1F2"/>
</linearGradient>
<linearGradient id="paint1_linear_9422_44344" x1="-112.104" y1="2721.61" x2="2657.65" y2="-809.727" gradientUnits="userSpaceOnUse">
<stop offset="0.413462" stop-color="#F0EEF2" stop-opacity="0"/>
<stop offset="0.669364" stop-color="#F5F4F5"/>
<stop offset="0.91643" stop-color="#E5F1F2"/>
</linearGradient>
<radialGradient id="paint2_radial_9422_44344" cx="0" cy="0" r="1" gradientTransform="matrix(1242.62 -144.597 -29.8995 820.848 -1009.15 1788.97)" gradientUnits="userSpaceOnUse">
<stop offset="0.50341" stop-color="#EFEDF3"/>
<stop offset="0.579414" stop-color="#EFEDF3" stop-opacity="0"/>
</radialGradient>
<radialGradient id="paint3_radial_9422_44344" cx="0" cy="0" r="1" gradientTransform="matrix(1514.64 -60.162 -119.144 925.258 -759.562 1459.55)" gradientUnits="userSpaceOnUse">
<stop offset="0.397926" stop-color="#E9E7EF"/>
<stop offset="0.608213" stop-color="#F0EEF2" stop-opacity="0"/>
</radialGradient>
<radialGradient id="paint4_radial_9422_44344" cx="0" cy="0" r="1" gradientTransform="matrix(2048.08 477.061 -143.256 327.14 433.795 1399.55)" gradientUnits="userSpaceOnUse">
<stop offset="0.50341" stop-color="#E9E7EF"/>
<stop offset="0.63655" stop-color="#F0EEF2" stop-opacity="0"/>
</radialGradient>
<radialGradient id="paint5_radial_9422_44344" cx="0" cy="0" r="1" gradientTransform="matrix(-222.5 731 -115.141 -59.8511 2362 53)" gradientUnits="userSpaceOnUse">
<stop offset="0.193645" stop-color="#E2E0E5"/>
<stop offset="1" stop-color="#E2E0E5" stop-opacity="0"/>
</radialGradient>
<linearGradient id="paint6_linear_9422_44344" x1="-390.291" y1="2333.52" x2="3867.32" y2="2103.07" gradientUnits="userSpaceOnUse">
<stop stop-color="#F5F4F6"/>
<stop offset="0.254808" stop-color="#F6F7F9"/>
<stop offset="0.548077" stop-color="#FBFBFC"/>
<stop offset="0.706731" stop-color="#F8F6F9"/>
<stop offset="1" stop-color="#F6F3F4"/>
</linearGradient>
<linearGradient id="paint7_linear_9422_44344" x1="-694.504" y1="1806.61" x2="3167.39" y2="-312.194" gradientUnits="userSpaceOnUse">
<stop stop-color="#FBFBFC"/>
<stop offset="0.192308" stop-color="#E9E8E9"/>
<stop offset="0.370192" stop-color="#E9EAED"/>
<stop offset="0.572115" stop-color="#E0E0ED"/>
<stop offset="0.802885" stop-color="white"/>
<stop offset="1" stop-color="#F3FAFA"/>
</linearGradient>
<linearGradient id="paint8_linear_9422_44344" x1="-316.331" y1="2461.63" x2="4140.12" y2="1413.23" gradientUnits="userSpaceOnUse">
<stop stop-color="#EFEFF6"/>
<stop offset="0.192308" stop-color="#EEF0F3"/>
<stop offset="0.548077" stop-color="#EFF0F3"/>
<stop offset="0.706731" stop-color="#F3F2F4"/>
<stop offset="1" stop-color="#F6F3F4"/>
</linearGradient>
<radialGradient id="paint9_radial_9422_44344" cx="0" cy="0" r="1" gradientTransform="matrix(1319.85 -655.361 -507.494 -866.632 901.502 1488.95)" gradientUnits="userSpaceOnUse">
<stop offset="0.355915" stop-color="#F5F4F3"/>
<stop offset="0.755146" stop-color="#F5F4F3" stop-opacity="0"/>
</radialGradient>
<radialGradient id="paint10_radial_9422_44344" cx="0" cy="0" r="1" gradientTransform="matrix(-2795.84 -354.264 -508.026 2182.1 5017.24 1187.92)" gradientUnits="userSpaceOnUse">
<stop offset="0.355915" stop-color="#ECE7EC"/>
<stop offset="0.647497" stop-color="#F5F4F3" stop-opacity="0"/>
</radialGradient>
<radialGradient id="paint11_radial_9422_44344" cx="0" cy="0" r="1" gradientTransform="matrix(1797.53 -290.881 19.0094 972.218 2232.64 91.4248)" gradientUnits="userSpaceOnUse">
<stop offset="0.352129" stop-color="#E6E6E6"/>
<stop offset="0.941828" stop-color="#E6E6E6" stop-opacity="0"/>
</radialGradient>
<radialGradient id="paint12_radial_9422_44344" cx="0" cy="0" r="1" gradientTransform="matrix(450.1 -1868.84 1608.78 90.3816 3580.08 1669.38)" gradientUnits="userSpaceOnUse">
<stop stop-color="#E5F1F2"/>
<stop offset="0.453684" stop-color="#E5F1F2" stop-opacity="0"/>
</radialGradient>
<linearGradient id="paint13_linear_9422_44344" x1="-801.141" y1="1621.91" x2="3053.97" y2="-509.816" gradientUnits="userSpaceOnUse">
<stop stop-color="#F4F4F8"/>
<stop offset="0.192308" stop-color="#F9F8F9"/>
<stop offset="0.370192" stop-color="#EFF0F3"/>
<stop offset="0.572115" stop-color="#EDEDF4"/>
<stop offset="0.802885" stop-color="#E7EFF0"/>
<stop offset="1" stop-color="#E7EFF0"/>
</linearGradient>
<linearGradient id="paint14_linear_9422_44344" x1="-801.141" y1="1621.91" x2="3053.97" y2="-509.816" gradientUnits="userSpaceOnUse">
<stop offset="0.335651" stop-color="#F4F4F8" stop-opacity="0"/>
<stop offset="0.601445" stop-color="#F9F8F9"/>
<stop offset="0.777863" stop-color="#F9F8F9" stop-opacity="0"/>
</linearGradient>
<linearGradient id="paint15_linear_9422_44344" x1="2898.92" y1="706.39" x2="2194.01" y2="-834.763" gradientUnits="userSpaceOnUse">
<stop offset="0.786741" stop-color="#F4F4F8" stop-opacity="0"/>
<stop offset="0.958776" stop-color="#EFF0F6"/>
</linearGradient>
<linearGradient id="paint16_linear_9422_44344" x1="487.557" y1="-645.999" x2="1501.44" y2="1973.85" gradientUnits="userSpaceOnUse">
<stop stop-color="#EAEAF3" stop-opacity="0.35"/>
<stop offset="0.397" stop-color="#F5F2F5" stop-opacity="0.35"/>
<stop offset="0.967" stop-color="#FBF8F6" stop-opacity="0"/>
</linearGradient>
<linearGradient id="paint17_linear_9422_44344" x1="-1017.27" y1="1138.04" x2="4152.98" y2="2289.91" gradientUnits="userSpaceOnUse">
<stop offset="0.0304287" stop-color="#FAF7F9" stop-opacity="0.15"/>
<stop offset="0.389423" stop-color="#FBF8F8" stop-opacity="0"/>
<stop offset="0.690504" stop-color="#F7F0F0" stop-opacity="0"/>
<stop offset="0.938669" stop-color="#EFEAEE" stop-opacity="0"/>
</linearGradient>
<clipPath id="clip0_9422_44344">
<rect width="3000" height="2048" fill="white"/>
</clipPath>
</defs>
</svg>
